<svg version="1.1" viewBox="0 0 30 30" xmlns="http://www.w3.org/2000/svg">
 <defs>
  <linearGradient id="gradient1" x1="0%" y1="100%" x2="100%" y2="0%">
   <stop stop-color="#1eb953" offset="0"/>
   <stop stop-color="#1db990" offset="1"/>
  </linearGradient>
 </defs>
 <g stroke-width="0">
  <path d="m4.7922 4.7922c5.1854-5.1854 16.815-5.1854 22 0 5.1854 5.1854 0 22 0 22s-16.815 5.1854-22 0c-5.1854-5.1854-5.1854-16.815 0-22z" fill="url(#gradient1)"/>
  <g transform="translate(2.9998 2.9999)" fill="#fff" aria-label="CT">
   <path d="m7.9577 18.043q-1.2969 0-2.3985-0.38281-1.0938-0.38281-1.8829-1.1406-0.78909-0.75781-1.2266-1.8906-0.4297-1.1328-0.4297-2.6172 0-1.3828 0.41408-2.5078t1.2032-1.9297q0.75784-0.77344 1.8751-1.1953 1.125-0.42188 2.4532-0.42188 0.7344 0 1.3204 0.085937 0.59377 0.078125 1.0938 0.21094 0.52345 0.14844 0.94534 0.33594 0.4297 0.17969 0.75002 0.33594v2.8203h-0.34376q-0.21876-0.1875-0.5547-0.44531-0.32814-0.25781-0.75002-0.50781-0.4297-0.25-0.92972-0.42188t-1.0703-0.17188q-0.63283 0-1.2032 0.20312-0.57033 0.19531-1.0547 0.65625-0.46095 0.44531-0.75002 1.1797-0.28126 0.73438-0.28126 1.7812 0 1.0938 0.3047 1.8281 0.31251 0.73438 0.78127 1.1562 0.47658 0.42969 1.0625 0.61719 0.58596 0.17969 1.1563 0.17969 0.54689 0 1.0782-0.16406 0.53908-0.16406 0.99222-0.44531 0.38282-0.22656 0.71096-0.48438 0.32813-0.25781 0.53908-0.44531h0.31251v2.7812q-0.43751 0.19531-0.83596 0.36719t-0.83596 0.29688q-0.57033 0.16406-1.0703 0.25-0.50002 0.08594-1.375 0.08594z" stroke-width="0"/>
   <path d="m21.98 8.4336h-3.6328v9.3828h-3v-9.3828h-3.6328v-2.25h10.266z"/>
  </g>
 </g>
</svg>
