<?xml version="1.0" encoding="UTF-8"?>
<svg id="Layer_1" data-name="Layer 1" xmlns="http://www.w3.org/2000/svg" version="1.1" viewBox="0 0 30 30">
  <defs>
    <style>
      .cls-1 {
        fill: #6700ff;
        stroke-width: 0px;
      }
    </style>
  </defs>
  <path class="cls-1" d="M12.6,17h2.2l-.7,3.4c-.3.1-.7.2-1.4.2-2,0-3.5-1.2-3.5-3.8s1.1-5.1,2.6-6.3c1-.7,2.3-1.1,3.9-1.1s2.7.3,3.4.7l1.3-3.9c-.7-.3-2.3-.7-4.6-.7s-5.9,1-7.8,2.7c-2.3,2.1-3.8,5.1-3.8,8.9s.9,4.3,2.2,5.5c1.4,1.3,3.3,1.9,5.8,1.9s4.2-.5,5.7-1l1.9-10.1h-6.5l-.7,3.6Z"/>
  <circle class="cls-1" cx="23.8" cy="23.4" r="2.1"/>
</svg>